<?xml version="1.0" encoding="UTF-8" standalone="no"?><!DOCTYPE svg PUBLIC "-//W3C//DTD SVG 1.1//EN" "http://www.w3.org/Graphics/SVG/1.1/DTD/svg11.dtd"><svg width="100%" height="100%" viewBox="0 0 2134 2134" version="1.1" xmlns="http://www.w3.org/2000/svg" xmlns:xlink="http://www.w3.org/1999/xlink" xml:space="preserve" style="fill-rule:evenodd;clip-rule:evenodd;stroke-linejoin:round;stroke-miterlimit:2;"><rect x="0" y="0" width="2133.33" height="2133.33" style="fill:#353535;"/><g><path d="M748.959,1397.89l635.415,-0l0,-459.662l-635.415,-0l0,459.662Zm608.376,-27.039l-559.043,-0l193.653,-170.494l139.277,139.264c5.286,5.286 13.831,5.286 19.117,-0c5.286,-5.286 5.286,-13.831 -0,-19.117l-64.988,-64.988l124.122,-135.925l147.862,135.533l0,115.727Zm-581.337,-405.584l581.337,-0l0,253.179l-139.575,-127.949c-2.65,-2.419 -6.192,-3.785 -9.734,-3.542c-3.582,0.163 -6.962,1.744 -9.382,4.394l-132.41,145.024l-64.123,-64.123c-5.056,-5.043 -13.141,-5.286 -18.494,-0.595l-207.619,182.797l0,-389.185Z" style="fill:#fff;fill-rule:nonzero;"/><path d="M884.154,1005.83c-41.518,0 -75.29,33.772 -75.29,75.29c-0,41.505 33.772,75.276 75.29,75.276c41.518,0 75.29,-33.771 75.29,-75.276c-0,-41.518 -33.772,-75.29 -75.29,-75.29Zm-0,123.541c-26.606,-0 -48.251,-21.645 -48.251,-48.238c-0,-26.592 21.645,-48.264 48.251,-48.264c26.606,0 48.251,21.658 48.251,48.251c-0,26.593 -21.645,48.251 -48.251,48.251Z" style="fill:#fff;fill-rule:nonzero;"/><path d="M1348.95,884.154c-24.2,-21.442 -152.946,-134.627 -226.424,-181.364c-12.33,-13.114 -29.716,-21.428 -49.103,-21.428c-19.387,-0 -36.773,8.314 -49.102,21.428c-73.479,46.737 -202.224,159.922 -226.424,181.364l-103.019,-0l0,567.817l743.571,0l-0,-567.817l-89.499,-0Zm-315.152,-143.726c0.122,-0.581 0.378,-1.122 0.527,-1.689c1.96,-7.233 5.611,-12.83 8.923,-16.548c0.068,-0.068 0.081,-0.163 0.149,-0.244c7.422,-8.26 18.075,-13.546 30.026,-13.546c11.952,-0 22.605,5.286 30.027,13.546c0.068,0.068 0.081,0.163 0.149,0.244c3.312,3.718 6.962,9.328 8.923,16.561c0.148,0.568 0.392,1.109 0.527,1.69c0.581,2.623 0.933,5.462 0.933,8.517c-0,22.361 -18.197,40.559 -40.559,40.559c-22.361,-0 -40.558,-18.198 -40.558,-40.559c0,-3.055 0.352,-5.894 0.933,-8.531Zm-27.972,7.855l0,0.676c0,37.273 30.324,67.598 67.597,67.598c37.274,-0 67.598,-30.325 67.598,-67.598l-0,-0.676c56.376,41.005 128.489,102.491 166.898,135.871l-468.991,-0c38.409,-33.38 110.535,-94.866 166.898,-135.871Zm405.584,676.65l-689.493,-0l0,-513.74l689.493,-0l0,513.74Z" style="fill:#fff;fill-rule:nonzero;"/></g></svg>