<svg width="60" height="36" viewBox="0 0 60 36" fill="none" xmlns="http://www.w3.org/2000/svg">
<rect width="60" height="36" rx="18" fill="#9850FF"/>
<path fill-rule="evenodd" clip-rule="evenodd" d="M33.86 11.51C34.24 11.51 34.47 11.09 34.2 10.82C34.195 10.815 34.1875 10.81 34.18 10.805C34.1725 10.8 34.165 10.795 34.16 10.79L32.41 9.02C31.04 7.66 28.82 7.66 27.45 9.02L25.83 10.65C25.51 10.96 25.74 11.5 26.18 11.5L33.86 11.51ZM35.99 18.69C35.49 19.18 35.25 19.91 35.45 20.67C35.71 21.6 36.62 22.19 37.58 22.19H38.45C39 22.19 39.45 22.64 39.45 23.19V23.38C39.45 25.45 37.76 27.14 35.69 27.14H24.21C22.14 27.14 20.45 25.45 20.45 23.38V16.65C20.45 15.42 21.04 14.33 21.95 13.65C22.58 13.17 23.36 12.89 24.21 12.89H35.69C37.76 12.89 39.45 14.58 39.45 16.65V17.09C39.45 17.64 39 18.09 38.45 18.09H37.43C36.87 18.09 36.36 18.31 35.99 18.69ZM39.45 19.64V20.64C39.45 20.91 39.24 21.13 38.9599 21.14H37.5C36.97 21.14 36.49 20.75 36.45 20.23C36.42 19.92 36.54 19.63 36.74 19.43C36.92 19.24 37.17 19.14 37.44 19.14H38.95C39.24 19.15 39.45 19.37 39.45 19.64Z" fill="white"/>
</svg>
